<?xml version="1.0" encoding="UTF-8" standalone="no"?>
<svg
   xmlns:dc="http://purl.org/dc/elements/1.1/"
   xmlns:cc="http://creativecommons.org/ns#"
   xmlns:rdf="http://www.w3.org/1999/02/22-rdf-syntax-ns#"
   xmlns:svg="http://www.w3.org/2000/svg"
   xmlns="http://www.w3.org/2000/svg"
   viewBox="0 0 533.33331 131.5556"
   height="131.5556"
   width="533.33331"
   xml:space="preserve"
   id="svg2"
   version="1.1"><metadata
     id="metadata8"><rdf:RDF><cc:Work
         rdf:about=""><dc:format>image/svg+xml</dc:format><dc:type
           rdf:resource="http://purl.org/dc/dcmitype/StillImage" /></cc:Work></rdf:RDF></metadata><defs
     id="defs6"><clipPath
       id="clipPath18"
       clipPathUnits="userSpaceOnUse"><path
         id="path16"
         d="M 0,98.667 H 400 V 0 H 0 Z" /></clipPath></defs><g
     transform="matrix(1.3333333,0,0,-1.3333333,0,131.5556)"
     id="g10"><g
       id="g12"><g
         clip-path="url(#clipPath18)"
         id="g14"><g
           transform="translate(116.7319,26.7721)"
           id="g20"><path
             id="path22"
             style="fill:#70be47;fill-opacity:1;fill-rule:nonzero;stroke:none"
             d="m 0,0 c -1.437,0 -2.601,1.164 -2.601,2.6 v 32.496 c 0,1.435 1.164,2.599 2.601,2.599 1.437,0 2.602,-1.164 2.602,-2.599 V 2.6 C 2.602,1.164 1.437,0 0,0" /></g><g
           transform="translate(105.5571,29.0075)"
           id="g24"><path
             id="path26"
             style="fill:#26ae73;fill-opacity:1;fill-rule:nonzero;stroke:none"
             d="m 0,0 c -1.437,0 -2.601,1.164 -2.601,2.599 v 28.026 c 0,1.436 1.164,2.6 2.601,2.6 1.437,0 2.601,-1.164 2.601,-2.6 V 2.599 C 2.601,1.164 1.437,0 0,0" /></g><g
           transform="translate(94.3823,31.2428)"
           id="g28"><path
             id="path30"
             style="fill:#0f8a9b;fill-opacity:1;fill-rule:nonzero;stroke:none"
             d="m 0,0 c -1.437,0 -2.602,1.164 -2.602,2.599 v 23.556 c 0,1.435 1.165,2.599 2.602,2.599 1.437,0 2.601,-1.164 2.601,-2.599 V 2.599 C 2.601,1.164 1.437,0 0,0" /></g><g
           transform="translate(87.0537,23.0925)"
           id="g32"><path
             id="path34"
             style="fill:#ffffff;fill-opacity:1;fill-rule:nonzero;stroke:none"
             d="m 0,0 -6.649,11.163 c 0.108,0.08 0.228,0.138 0.334,0.221 2.743,2.168 4.478,5.271 4.885,8.742 0.585,4.977 -1.774,9.918 -6.009,12.594 -1.093,0.69 -2.536,0.363 -3.227,-0.728 -0.689,-1.092 -0.363,-2.537 0.729,-3.227 2.722,-1.72 4.238,-4.896 3.863,-8.093 -0.262,-2.232 -1.378,-4.225 -3.139,-5.618 -1.762,-1.391 -3.958,-2.005 -6.194,-1.751 -2.23,0.262 -4.224,1.377 -5.617,3.139 -1.393,1.763 -2.015,3.962 -1.752,6.194 0.296,2.521 1.694,4.75 3.838,6.113 1.09,0.694 1.411,2.14 0.718,3.229 -0.692,1.087 -2.14,1.409 -3.228,0.717 -3.335,-2.121 -5.513,-5.59 -5.973,-9.513 -0.408,-3.472 0.561,-6.895 2.727,-9.637 2.166,-2.745 5.271,-4.481 8.741,-4.888 0.52,-0.061 1.038,-0.091 1.552,-0.091 1.025,0 2.026,0.162 3.008,0.396 L -4.47,-2.662 C -3.735,-3.896 -2.14,-4.3 -0.905,-3.564 0.33,-2.829 0.734,-1.233 0,0" /></g><g
           transform="translate(134.4429,36.4401)"
           id="g36"><path
             id="path38"
             style="fill:#ffffff;fill-opacity:1;fill-rule:nonzero;stroke:none"
             d="m 0,0 c -0.356,0.393 -0.569,0.856 -0.569,1.315 0,0.997 0.816,1.709 1.741,1.709 0.427,0 0.816,-0.143 1.136,-0.5 1.279,-1.528 3.128,-2.738 5.44,-2.738 2.487,0 4.053,1.317 4.053,3.272 0,1.528 -0.853,2.311 -3.451,3.52 L 5.755,7.787 c -3.73,1.742 -5.472,3.693 -5.472,6.505 0,3.694 3.164,6.362 7.395,6.362 3.053,0.033 5.189,-1.279 6.538,-2.775 0.426,-0.459 0.569,-0.922 0.569,-1.348 0,-0.89 -0.852,-1.673 -1.742,-1.673 -0.389,0 -0.783,0.181 -1.135,0.5 -1.139,1.136 -2.525,1.919 -4.23,1.919 -2.136,0 -3.554,-1.103 -3.554,-2.845 0,-1.455 0.709,-2.132 3.267,-3.34 l 2.631,-1.21 c 3.911,-1.812 5.616,-3.697 5.616,-6.681 0,-4.087 -3.304,-6.788 -7.854,-6.788 C 4.87,-3.587 1.812,-2.202 0,0" /></g><g
           transform="translate(180.8604,44.154)"
           id="g40"><path
             id="path42"
             style="fill:#ffffff;fill-opacity:1;fill-rule:nonzero;stroke:none"
             d="m 0,0 v -9.383 c 0,-1.138 -0.816,-1.918 -1.885,-1.918 -1.066,0 -1.882,0.816 -1.882,1.918 v 8.85 c 0,2.488 -1.386,4.054 -3.628,4.054 -2.201,0 -3.836,-1.635 -3.836,-3.874 v -9.03 c 0,-1.138 -0.82,-1.918 -1.849,-1.918 -1.103,0 -1.885,0.816 -1.885,1.918 v 8.85 c 0,2.455 -1.456,4.054 -3.661,4.054 -2.275,0 -3.84,-1.635 -3.84,-4.054 v -8.85 c 0,-1.138 -0.78,-1.918 -1.849,-1.918 -1.066,0 -1.882,0.816 -1.882,1.918 V 5.013 c 0,1.103 0.783,1.919 1.882,1.919 0.996,0 1.779,-0.78 1.815,-1.812 1.21,1.139 2.878,1.812 4.833,1.812 2.382,0 4.23,-0.96 5.296,-2.735 1.316,1.705 3.448,2.735 5.903,2.735 C -2.488,6.932 0,4.267 0,0" /></g><g
           transform="translate(196.1382,39.8542)"
           id="g44"><path
             id="path46"
             style="fill:#ffffff;fill-opacity:1;fill-rule:nonzero;stroke:none"
             d="m 0,0 v 0.319 h -4.48 c -2.025,0 -3.091,-0.746 -3.091,-2.131 0,-1.422 1.209,-2.312 3.058,-2.312 C -1.992,-4.124 0,-2.312 0,0 m 3.767,3.947 v -9.066 c 0,-1.103 -0.779,-1.882 -1.849,-1.882 -1.065,0 -1.848,0.815 -1.848,1.882 v 0.213 c -1.279,-1.349 -3.128,-2.095 -5.366,-2.095 -3.627,0 -6.079,2.024 -6.079,5.046 0,3.058 2.488,4.976 6.436,4.976 L 0,3.021 V 4.16 c 0,2.382 -1.349,3.731 -3.73,3.731 -1.459,0 -2.775,-0.534 -3.878,-1.636 -0.459,-0.39 -0.852,-0.569 -1.279,-0.569 -0.889,0 -1.635,0.75 -1.635,1.565 0,0.533 0.25,1.033 0.746,1.529 1.496,1.562 3.804,2.451 6.365,2.451 4.514,0 7.178,-2.701 7.178,-7.284" /></g><g
           transform="translate(215.4365,49.1672)"
           id="g48"><path
             id="path50"
             style="fill:#ffffff;fill-opacity:1;fill-rule:nonzero;stroke:none"
             d="m 0,0 c 0,-1.029 -0.746,-1.743 -1.812,-1.812 -2.844,-0.073 -4.8,-1.992 -4.8,-4.8 v -7.784 c 0,-1.139 -0.783,-1.918 -1.849,-1.918 -1.065,0 -1.885,0.815 -1.885,1.918 V 0 c 0,1.103 0.783,1.918 1.885,1.918 1.029,0 1.813,-0.815 1.813,-1.918 v -0.533 c 1.171,1.386 2.914,2.238 4.869,2.238 C -0.746,1.705 0,0.996 0,0" /></g><g
           transform="translate(229.1523,34.7712)"
           id="g52"><path
             id="path54"
             style="fill:#ffffff;fill-opacity:1;fill-rule:nonzero;stroke:none"
             d="m 0,0 c 0,-0.782 -0.39,-1.315 -1.103,-1.565 -0.603,-0.247 -1.349,-0.353 -2.344,-0.353 -4.161,0 -6.436,2.131 -6.436,6.075 v 8.533 h -1.386 c -0.921,0 -1.668,0.677 -1.668,1.599 0,0.922 0.747,1.636 1.668,1.636 h 1.386 v 3.057 c 0,1.066 0.82,1.919 1.886,1.919 1.065,0 1.885,-0.816 1.885,-1.919 v -3.057 h 3.73 c 0.959,0 1.672,-0.714 1.672,-1.636 0,-0.922 -0.713,-1.599 -1.672,-1.599 h -3.73 V 4.48 c 0,-2.135 1.029,-3.025 3.411,-3.025 0.426,0 0.746,0.037 1.065,0.037 C -0.64,1.492 0,0.89 0,0" /></g><g
           transform="translate(239.957,34.7712)"
           id="g56"><path
             id="path58"
             style="fill:#ffffff;fill-opacity:1;fill-rule:nonzero;stroke:none"
             d="m 0,0 v 18.556 h -6.325 c -0.996,0 -1.742,0.709 -1.742,1.669 0,0.959 0.746,1.705 1.742,1.705 h 16.458 c 0.992,0 1.741,-0.746 1.741,-1.705 0,-0.96 -0.749,-1.669 -1.741,-1.669 H 3.767 L 3.767,0 C 3.767,-1.103 2.951,-1.918 1.886,-1.918 0.819,-1.918 0,-1.103 0,0" /></g><g
           transform="translate(254.9551,43.6579)"
           id="g60"><path
             id="path62"
             style="fill:#ffffff;fill-opacity:1;fill-rule:nonzero;stroke:none"
             d="M 0,0 H 9.489 C 9.42,2.524 7.641,4.263 5.01,4.263 2.488,4.263 0.566,2.558 0,0 m 13.224,-0.676 v -0.177 c 0,-1.279 -0.82,-2.061 -2.136,-2.061 H -0.073 c 0.5,-2.809 2.594,-4.587 5.689,-4.587 1.492,0 2.914,0.463 4.087,1.353 0.319,0.212 0.639,0.352 0.959,0.352 0.89,0 1.566,-0.673 1.566,-1.561 0,-0.64 -0.25,-1.067 -0.926,-1.566 -1.669,-1.242 -3.624,-1.882 -5.792,-1.882 -5.404,0 -9.387,3.873 -9.387,9.1 0,5.152 3.91,9.133 8.993,9.133 4.656,0 8.108,-3.411 8.108,-8.104" /></g><g
           transform="translate(287.6865,44.154)"
           id="g64"><path
             id="path66"
             style="fill:#ffffff;fill-opacity:1;fill-rule:nonzero;stroke:none"
             d="m 0,0 v -9.383 c 0,-1.138 -0.816,-1.918 -1.849,-1.918 -1.102,0 -1.885,0.816 -1.885,1.918 v 8.887 c 0,2.418 -1.526,4.05 -3.8,4.05 -2.312,0 -3.985,-1.705 -3.985,-4.05 v -8.887 c 0,-1.138 -0.778,-1.918 -1.848,-1.918 -1.066,0 -1.881,0.816 -1.881,1.918 V 5.013 c 0,1.103 0.782,1.919 1.881,1.919 1.033,0 1.816,-0.816 1.816,-1.919 1.242,1.209 2.984,1.919 5.009,1.919 C -2.558,6.932 0,4.23 0,0" /></g><g
           transform="translate(306.2021,41.9528)"
           id="g68"><path
             id="path70"
             style="fill:#ffffff;fill-opacity:1;fill-rule:nonzero;stroke:none"
             d="m 0,0 c 0,3.374 -2.136,5.722 -5.263,5.722 -3.091,0 -5.366,-2.418 -5.366,-5.689 0,-3.304 2.238,-5.722 5.366,-5.722 C -2.136,-5.689 0,-3.378 0,0 M 3.697,16.42 V -7.218 C 3.697,-8.32 2.877,-9.1 1.849,-9.1 0.782,-9.1 0,-8.284 0,-7.218 v 0.713 C -1.279,-8.141 -3.378,-9.1 -5.902,-9.1 c -4.904,0 -8.531,3.837 -8.531,9.1 0,5.259 3.627,9.133 8.531,9.133 2.455,0 4.516,-0.96 5.828,-2.522 v 9.809 c 0,1.103 0.82,1.919 1.886,1.919 1.065,0 1.885,-0.779 1.885,-1.919" /></g><g
           transform="translate(318.0693,43.6579)"
           id="g72"><path
             id="path74"
             style="fill:#ffffff;fill-opacity:1;fill-rule:nonzero;stroke:none"
             d="M 0,0 H 9.489 C 9.419,2.524 7.641,4.263 5.009,4.263 2.487,4.263 0.565,2.558 0,0 m 13.223,-0.676 v -0.177 c 0,-1.279 -0.82,-2.061 -2.135,-2.061 H -0.074 c 0.5,-2.809 2.595,-4.587 5.689,-4.587 1.492,0 2.914,0.463 4.087,1.353 0.319,0.212 0.64,0.352 0.959,0.352 0.89,0 1.566,-0.673 1.566,-1.561 0,-0.64 -0.25,-1.067 -0.926,-1.566 -1.669,-1.242 -3.624,-1.882 -5.792,-1.882 -5.403,0 -9.387,3.873 -9.387,9.1 0,5.152 3.911,9.133 8.993,9.133 4.656,0 8.108,-3.411 8.108,-8.104" /></g><g
           transform="translate(345.8936,49.1672)"
           id="g76"><path
             id="path78"
             style="fill:#ffffff;fill-opacity:1;fill-rule:nonzero;stroke:none"
             d="m 0,0 c 0,-1.029 -0.746,-1.743 -1.812,-1.812 -2.844,-0.073 -4.799,-1.992 -4.799,-4.8 v -7.784 c 0,-1.139 -0.78,-1.918 -1.849,-1.918 -1.066,0 -1.882,0.815 -1.882,1.918 V 0 c 0,1.103 0.783,1.918 1.882,1.918 1.032,0 1.815,-0.815 1.815,-1.918 v -0.533 c 1.172,1.386 2.915,2.238 4.87,2.238 C -0.746,1.705 0,0.996 0,0" /></g></g></g></g></svg>