<?xml version="1.0" encoding="UTF-8" standalone="no"?>
<svg
   xmlns:dc="http://purl.org/dc/elements/1.1/"
   xmlns:cc="http://creativecommons.org/ns#"
   xmlns:rdf="http://www.w3.org/1999/02/22-rdf-syntax-ns#"
   xmlns:svg="http://www.w3.org/2000/svg"
   xmlns="http://www.w3.org/2000/svg"
   viewBox="0 0 400 98.666664"
   height="98.666664"
   width="400"
   xml:space="preserve"
   id="svg2"
   version="1.1"><metadata
     id="metadata8"><rdf:RDF><cc:Work
         rdf:about=""><dc:format>image/svg+xml</dc:format><dc:type
           rdf:resource="http://purl.org/dc/dcmitype/StillImage" /></cc:Work></rdf:RDF></metadata><defs
     id="defs6"><clipPath
       id="clipPath18"
       clipPathUnits="userSpaceOnUse"><path
         id="path16"
         d="M 0,74 H 300 V 0 H 0 Z" /></clipPath><clipPath
       id="clipPath46"
       clipPathUnits="userSpaceOnUse"><path
         id="path44"
         d="M 95.3687,51.7783 H 256.003 V 23 H 95.3687 Z" /></clipPath></defs><g
     transform="matrix(1.3333333,0,0,-1.3333333,0,98.666667)"
     id="g10"><g
       id="g12"><g
         clip-path="url(#clipPath18)"
         id="g14"><g
           transform="translate(83.8999,24.7002)"
           id="g20"><path
             id="path22"
             style="fill:#70be47;fill-opacity:1;fill-rule:nonzero;stroke:none"
             d="m 0,0 c -1.1,0 -2,0.899 -2,2 v 24.3 c 0,1.1 0.9,2 2,2 1.1,0 2,-0.9 2,-2 V 1.899 C 1.9,0.899 1,0 0,0" /></g><g
           transform="translate(75.5,26.4004)"
           id="g24"><path
             id="path26"
             style="fill:#26ae73;fill-opacity:1;fill-rule:nonzero;stroke:none"
             d="m 0,0 c -1.1,0 -2,0.899 -2,2 v 21 c 0,1.1 0.9,2 2,2 1.1,0 2,-0.9 2,-2 V 2 C 1.9,0.899 1,0 0,0" /></g><g
           transform="translate(67.1001,28.0996)"
           id="g28"><path
             id="path30"
             style="fill:#0f8a9b;fill-opacity:1;fill-rule:nonzero;stroke:none"
             d="m 0,0 c -1.1,0 -2,0.9 -2,2 v 17.601 c 0,1.099 0.9,2 2,2 1.1,0 2,-0.901 2,-2 V 1.9 C 1.9,0.801 1.1,0 0,0" /></g><g
           transform="translate(61.6001,22)"
           id="g32"><path
             id="path34"
             style="fill:#ffffff;fill-opacity:1;fill-rule:nonzero;stroke:none"
             d="m 0,0 -5,8.4 c 0.1,0.1 0.2,0.1 0.2,0.2 2.1,1.6 3.4,4 3.7,6.6 0.4,3.7 -1.3,7.4 -4.5,9.5 -0.8,0.5 -1.9,0.3 -2.4,-0.5 -0.5,-0.8 -0.3,-1.9 0.5,-2.4 2,-1.3 3.2,-3.7 2.9,-6.1 -0.2,-1.7 -1,-3.2 -2.4,-4.2 -1.3,-1 -3,-1.5 -4.6,-1.3 -1.7,0.2 -3.2,1 -4.2,2.4 -1,1.3 -1.5,3 -1.3,4.6 0.2,1.9 1.3,3.6 2.9,4.6 0.8,0.5 1.1,1.6 0.5,2.4 -0.5,0.8 -1.6,1.1 -2.4,0.5 -2.5,-1.6 -4.1,-4.2 -4.5,-7.1 -0.3,-2.6 0.4,-5.2 2,-7.2 1.6,-2.1 4,-3.4 6.6,-3.7 0.4,0 0.8,-0.1 1.2,-0.1 0.8,0 1.5,0.1 2.3,0.3 l 5.2,-8.7 C -2.7,-2.7 -1.6,-3 -0.6,-2.5 0.2,-2.2 0.5,-1 0,0" /></g><g
           transform="translate(61.6001,22)"
           id="g36"><path
             id="path38"
             style="fill:none;stroke:#ffffff;stroke-width:0.25;stroke-linecap:butt;stroke-linejoin:miter;stroke-miterlimit:10;stroke-dasharray:none;stroke-opacity:1"
             d="m 0,0 -5,8.4 c 0.1,0.1 0.2,0.1 0.2,0.2 2.1,1.6 3.4,4 3.7,6.6 0.4,3.7 -1.3,7.4 -4.5,9.5 -0.8,0.5 -1.9,0.3 -2.4,-0.5 -0.5,-0.8 -0.3,-1.9 0.5,-2.4 2,-1.3 3.2,-3.7 2.9,-6.1 -0.2,-1.7 -1,-3.2 -2.4,-4.2 -1.3,-1 -3,-1.5 -4.6,-1.3 -1.7,0.2 -3.2,1 -4.2,2.4 -1,1.3 -1.5,3 -1.3,4.6 0.2,1.9 1.3,3.6 2.9,4.6 0.8,0.5 1.1,1.6 0.5,2.4 -0.5,0.8 -1.6,1.1 -2.4,0.5 -2.5,-1.6 -4.1,-4.2 -4.5,-7.1 -0.3,-2.6 0.4,-5.2 2,-7.2 1.6,-2.1 4,-3.4 6.6,-3.7 0.4,0 0.8,-0.1 1.2,-0.1 0.8,0 1.5,0.1 2.3,0.3 l 5.2,-8.7 C -2.7,-2.7 -1.6,-3 -0.6,-2.5 0.2,-2.2 0.5,-1 0,0 Z" /></g><g
           id="g40"><g
             id="g42" /><g
             id="g54"><g
               id="g52"
               clip-path="url(#clipPath46)"><text
                 id="text50"
                 style="font-variant:normal;font-weight:500;font-stretch:normal;font-size:26.87100029px;font-family:'Cera Round Pro Medium';-inkscape-font-specification:CeraRoundPro-Medium;writing-mode:lr-tb;fill:#ffffff;fill-opacity:1;fill-rule:nonzero;stroke:none"
                 transform="matrix(1,0,0,-1,95.3687,29.4756)"><tspan
                   id="tspan48"
                   y="0"
                   x="0 15.020889 38.747982 53.150837 63.227463 73.922119 87.518845 102.83532 118.28614 135.24174 150.55821">SmartTender</tspan></text>
</g></g></g></g></g></g></svg>