<svg id="Layer_1" data-name="Layer 1" xmlns="http://www.w3.org/2000/svg" width="64" height="64" viewBox="0 0 64 64"><title>icon_3</title><path id="icon_1" d="M62.2,1.8A6.114,6.114,0,0,1,64,6.31V57.69A6.162,6.162,0,0,1,57.69,64H6.31A6.162,6.162,0,0,1,0,57.69V6.31A6.162,6.162,0,0,1,6.31,0H57.69A6.114,6.114,0,0,1,62.2,1.8Zm-9.54,19.53a10.27,10.27,0,0,0,1.728-2.4,12.461,12.461,0,0,1-4.507,1.352,9.915,9.915,0,0,0,3.606-4.808,16.012,16.012,0,0,1-5.559,2.1,8.129,8.129,0,0,0-9.991-1.728Q32.3,18.481,33.2,25.39a23.585,23.585,0,0,1-10.366-2.93,31.586,31.586,0,0,1-7.362-5.934,8.668,8.668,0,0,0-.676,6.61,7.727,7.727,0,0,0,3.23,4.808,8.009,8.009,0,0,1-3.6-1.052,8.756,8.756,0,0,0,1.953,5.634,10.158,10.158,0,0,0,4.657,2.929,8.751,8.751,0,0,1-3.606.151q1.65,5.259,7.812,6.009a14.639,14.639,0,0,1-5.708,2.93,16.439,16.439,0,0,1-6.761.525A25.717,25.717,0,0,0,18.779,48a21.378,21.378,0,0,0,7.662.977q10.818-.6,17.2-7.437t6.686-18.1A18.053,18.053,0,0,0,52.657,21.333Z" transform="translate(0 0)" fill="#fff"/></svg>