<?xml version="1.0" encoding="utf-8"?>
<!-- Generator: Adobe Illustrator 22.1.0, SVG Export Plug-In . SVG Version: 6.00 Build 0)  -->
<svg version="1.1"
	 id="svg2" xmlns:cc="http://creativecommons.org/ns#" xmlns:dc="http://purl.org/dc/elements/1.1/" xmlns:inkscape="http://www.inkscape.org/namespaces/inkscape" xmlns:rdf="http://www.w3.org/1999/02/22-rdf-syntax-ns#" xmlns:sodipodi="http://sodipodi.sourceforge.net/DTD/sodipodi-0.dtd" xmlns:svg="http://www.w3.org/2000/svg"
	 xmlns="http://www.w3.org/2000/svg" xmlns:xlink="http://www.w3.org/1999/xlink" x="0px" y="0px" viewBox="0 0 64 64"
	 style="enable-background:new 0 0 64 64;" xml:space="preserve">
<style type="text/css">
	.st0{fill:#FFFFFF;}
</style>
<g id="layer1" transform="translate(0,-552.36218)">
	<g id="layer1-9" transform="translate(-1068,-236)">
		<path id="rect2995-4" class="st0" d="M1074.4,788.4c-3.5,0-6.4,2.9-6.4,6.4V846c0,3.5,2.9,6.4,6.4,6.4h51.2c3.5,0,6.4-2.9,6.4-6.4
			v-51.2c0-3.5-2.9-6.4-6.4-6.4H1074.4z M1085.9,801.9c2.5,0,4.4,2,4.4,4.4s-2,4.4-4.4,4.4s-4.4-2-4.4-4.4
			S1083.5,801.9,1085.9,801.9z M1109.2,813.5c0.5,0,1,0,1.7,0.1c3.4,0.2,7.1,2.8,7.2,9c0.1,5.1,0.1,13.1,0.1,16h-7.6
			c0-3,0-9.3,0-13.7c0-2-0.9-4.7-4.1-4.7c-3.5,0-4.4,3.3-4.4,4.7c0,4.2,0,11,0,13.7h-7.6c0-4.5,0-20.1,0-24.4c3.9,0,5.8,0,7.2,0
			c0,1.4,0,2.4,0,3.4c1.2-2.4,4.5-3.9,5.9-4C1108.2,813.5,1108.7,813.5,1109.2,813.5z M1082.1,814.2h7.6v24.3h-7.6V814.2z"/>
	</g>
</g>
</svg>
