<?xml version="1.0" encoding="utf-8"?>
<!-- Generator: Adobe Illustrator 21.1.0, SVG Export Plug-In . SVG Version: 6.00 Build 0)  -->
<svg version="1.1" id="Logo" xmlns="http://www.w3.org/2000/svg" xmlns:xlink="http://www.w3.org/1999/xlink" x="0px" y="0px"
	 viewBox="0 0 300 100" style="enable-background:new 0 0 300 100;" xml:space="preserve">
<path d="M11.5,19.6v59.9h59.9V19.6H11.5z M31.9,45.8c-0.2,1.1-0.3,2.2-0.3,3.3v22.4H20.3V27.3h10v9.2h0.2c2.2-6,7.4-9.2,12.2-9.2
	c0.9,0,1.8,0.1,2.6,0.2v10.3c-1.1-0.2-2.2-0.3-3.3-0.3C37,37.3,32.7,40.9,31.9,45.8z M62.5,71.4H52.5v-9.1h-0.1
	c-2.2,6.1-7.4,9.2-12.2,9.2c-0.9,0-1.8-0.1-2.6-0.2V61c1.1,0.2,2.2,0.3,3.3,0.3c5,0.2,9.3-3.3,10.1-8.3c0.2-1.1,0.3-2.2,0.3-3.3
	V27.3h11.2v27.5L62.5,71.4z M86.4,20.4c2.8-0.5,5.6-0.8,8.4-0.8c4.7,0,7.8,0.9,9.9,2.8c1.8,1.7,2.7,4,2.7,6.4c0,4-2.6,7.5-6.4,8.6
	v0.2c2.6,0.9,4.1,3.3,5,6.8c1.1,4.7,1.9,8,2.6,9.3h-4.6c-0.6-1-1.3-3.9-2.2-8.1c-1-4.7-2.9-6.5-6.8-6.6h-4.1v14.7h-4.4L86.4,20.4z
	 M90.7,35.8h4.5c4.7,0,7.7-2.6,7.7-6.5c0-4.4-3.2-6.3-7.8-6.3c-1.5,0-2.9,0.1-4.3,0.4V35.8z M126.9,54.4c-9,0-15.3-7-15.3-17.2
	c0-10.8,6.7-17.8,15.7-17.8c9.3,0,15.3,7.1,15.3,17.2C142.6,48.1,135.5,54.4,126.9,54.4L126.9,54.4z M127.1,50.8
	c7,0,10.9-6.4,10.9-14.1c0-6.8-3.5-13.8-10.8-13.8s-10.9,6.8-10.9,14.1C116.2,44.2,120.1,50.8,127.1,50.8L127.1,50.8z M147.8,48.5
	c2.3,1.4,5.1,2.2,7.8,2.2c4.5,0,7.1-2.3,7.1-5.8c0-3.1-1.8-5-6.4-6.7c-5.5-2-9-4.9-9-9.7c0-5.3,4.4-9.2,11-9.2
	c2.6-0.1,5.1,0.5,7.4,1.7l-1.2,3.6c-1.9-1.1-4.2-1.7-6.4-1.6c-4.6,0-6.4,2.8-6.4,5.1c0,3.2,2.1,4.7,6.8,6.5c5.7,2.3,8.6,5,8.6,10
	c0,5.2-3.8,9.8-11.8,9.8c-3,0-6-0.7-8.7-2.2L147.8,48.5z M173.1,20.4c2.6-0.5,5.3-0.8,8-0.8c4.4,0,7.2,0.8,9.3,2.5
	c1.9,1.4,3,3.6,2.9,6c0,3.3-2.2,6.2-5.8,7.5v0.2c4.1,0.8,7,4.3,7,8.5c0,2.6-1,5.1-2.9,6.8c-2.3,2.2-6.1,3.2-11.7,3.2
	c-2.3,0-4.5-0.1-6.8-0.4L173.1,20.4L173.1,20.4z M177.5,34.3h4c4.6,0,7.3-2.5,7.3-5.7c0-3.9-3-5.5-7.4-5.5c-1.3,0-2.6,0.1-3.9,0.3
	L177.5,34.3z M177.5,50.5c1.2,0.2,2.5,0.2,3.7,0.2c4.5,0,8.7-1.7,8.7-6.6c0-4.6-4-6.5-8.8-6.5h-3.6V50.5z M213.7,54.4
	c-9,0-15.3-7-15.3-17.2c0.1-10.8,6.7-17.8,15.7-17.8c9.3,0,15.3,7.1,15.3,17.2C229.5,48.1,222.4,54.4,213.7,54.4L213.7,54.4z
	 M213.9,50.8c7,0,10.9-6.4,10.9-14.1c0-6.8-3.5-13.8-10.8-13.8S203,29.7,203,37C203,44.2,206.9,50.8,213.9,50.8L213.9,50.8z
	 M235.1,20.4c2.8-0.5,5.6-0.8,8.4-0.8c4.7,0,7.8,0.9,9.9,2.8c1.8,1.7,2.7,4,2.7,6.4c0,4-2.6,7.5-6.4,8.6v0.2c2.6,0.9,4.1,3.3,5,6.8
	c1.1,4.7,1.9,8,2.6,9.3h-4.5c-0.6-1-1.3-3.9-2.2-8.1c-1-4.7-2.9-6.5-6.9-6.6h-4.1v14.7h-4.4L235.1,20.4L235.1,20.4z M239.5,35.8h4.5
	c4.7,0,7.7-2.6,7.7-6.5c0-4.4-3.2-6.3-7.8-6.3c-1.5,0-2.9,0.1-4.3,0.4V35.8z M288.3,52.3c-3.4,1.2-6.9,1.9-10.5,1.9
	c-5.1,0-9.4-1.3-12.7-4.5c-2.9-2.8-4.7-7.4-4.7-12.6c0-10.1,7-17.5,18.4-17.5c2.9-0.1,5.8,0.5,8.5,1.6l-1.1,3.6
	c-2.4-1.1-4.9-1.6-7.5-1.5c-8.3,0-13.6,5.1-13.6,13.6s5.1,13.7,13.1,13.7c2,0.1,4-0.2,5.8-0.9V39.5h-6.9V36h11.2L288.3,52.3
	L288.3,52.3z M99.9,72.8c-0.1-2.2-0.3-4.8-0.3-6.7c-0.6,1.8-1.2,3.8-2,5.9l-2.8,7.6h-1.5l-2.5-7.4C90,70,89.4,68,89,66.1
	c0,1.9-0.2,4.5-0.3,6.9l-0.4,6.7h-1.9l1.1-15.6H90l2.7,7.5c0.6,1.7,1.1,3.5,1.6,5.2c0.4-1.6,1-3.3,1.7-5.2l2.8-7.5h2.6l1,15.6h-2
	L99.9,72.8z M129.5,79.8l1.4-2c-1.4-1.6-2.1-3.7-2.1-5.8c0-4.9,3.1-8.1,7.2-8.1c1.4,0,2.8,0.4,3.9,1.2l1.4-1.9l1.2,0.8l-1.4,2
	c1.4,1.6,2.1,3.6,2,5.7c0,5.4-3.4,8.2-7.1,8.2c-1.4,0-2.8-0.4-3.9-1.3l-1.4,2L129.5,79.8z M138.9,66.6c-0.8-0.7-1.9-1.1-2.9-1.1
	c-3.4,0-5.1,3.1-5.1,6.4c0,1.5,0.4,2.9,1.1,4.2h0.1L138.9,66.6z M133.1,77.2c0.8,0.8,1.8,1.1,2.9,1.1c3.2,0,5.1-3,5.1-6.5
	c0-1.4-0.4-2.8-1.1-4h-0.1L133.1,77.2z M170.2,64.3c1.2-0.2,2.4-0.4,3.7-0.4c1.5-0.1,3,0.3,4.3,1.1c0.9,0.6,1.4,1.7,1.3,2.8
	c0,1.6-1.1,3-2.6,3.4v0.1c1.9,0.4,3.2,2,3.2,3.9c0,1.2-0.5,2.3-1.3,3.1c-1.1,1-2.8,1.5-5.4,1.5c-1,0-2.1-0.1-3.1-0.2L170.2,64.3
	L170.2,64.3z M172.2,70.7h1.8c2.1,0,3.4-1.1,3.4-2.6c0-1.8-1.4-2.5-3.4-2.5c-0.6,0-1.2,0-1.8,0.1L172.2,70.7L172.2,70.7z
	 M172.2,78.2c0.6,0.1,1.1,0.1,1.7,0.1c2.1,0,4-0.8,4-3c0-2.1-1.8-3-4-3h-1.7L172.2,78.2z M207.1,64.1h2V78h6.6v1.7h-8.7L207.1,64.1
	L207.1,64.1z M250.6,72.4h-6V78h6.8v1.7h-8.8V64.1h8.4v1.7h-6.4v4.9h6L250.6,72.4L250.6,72.4z M278.4,64.3c1.3-0.2,2.6-0.4,3.9-0.4
	c2.1,0,3.6,0.4,4.5,1.3c0.8,0.8,1.3,1.9,1.2,3c0,1.8-1.2,3.4-2.9,3.9v0.1c1.2,0.4,1.9,1.5,2.3,3.1c0.3,1.5,0.7,2.9,1.2,4.3h-2.1
	c-0.5-1.2-0.8-2.4-1-3.7c-0.5-2.1-1.3-3-3.1-3h-1.9v6.7h-2L278.4,64.3L278.4,64.3z M280.4,71.4h2.1c2.1,0,3.5-1.2,3.5-3
	c0-2-1.5-2.9-3.6-2.9c-0.7,0-1.3,0-2,0.2L280.4,71.4L280.4,71.4z"/>
</svg>
